<svg width="70" height="71" viewBox="0 0 48 47" fill="none" xmlns="http://www.w3.org/2000/svg">
    <path d="M45.9342 0.000103913C45.7561 0.00475143 44.9254 0.494135 44.0881 1.08762C39.07 4.6439 33.0106 7.03645 26.7118 7.94876C25.6774 8.09887 22.896 8.29918 20.5315 8.39399C20.5046 8.39492 20.4785 8.39631 20.452 8.39724C20.0787 8.37586 19.7031 8.36471 19.3242 8.36471C8.65165 8.36424 0 17.0133 0 27.6821C0 38.351 8.65165 47 19.3237 47C29.9958 47 38.6475 38.351 38.6475 27.6821C38.6475 21.8895 36.0966 16.6921 32.0571 13.1517C34.634 13.8674 37.1849 14.8052 39.1616 15.7975C40.6739 16.5564 43.646 18.3527 44.752 19.1758C45.2652 19.5578 45.8138 19.8701 45.9714 19.8701C46.7189 19.8701 47.3986 16.9965 47.6729 12.6795C48.0499 6.73529 47.1224 -0.0305697 45.9342 0.000103913ZM33.661 21.6292C34.4713 23.5444 34.8823 25.581 34.8823 27.6821C34.8823 29.7833 34.4713 31.8198 33.661 33.7351C32.8777 35.5866 31.7554 37.2504 30.3254 38.68C28.8954 40.1096 27.2311 41.2315 25.379 42.0146C23.4631 42.8247 21.426 43.2355 19.3242 43.2355C17.2224 43.2355 15.1853 42.8247 13.2694 42.0146C11.4173 41.2315 9.75298 40.1096 8.32297 38.68C6.89296 37.2504 5.77071 35.5866 4.98737 33.7351C4.17706 31.8198 3.7661 29.7833 3.7661 27.6821C3.7661 25.581 4.17706 23.5444 4.98737 21.6292C5.77071 19.7776 6.89296 18.1138 8.32297 16.6842C9.75298 15.2547 11.4173 14.1327 13.2694 13.3496C15.1853 12.5396 17.2224 12.1287 19.3242 12.1287C21.426 12.1287 23.4631 12.5396 25.379 13.3496C27.2311 14.1327 28.8954 15.2547 30.3254 16.6842C31.7554 18.1138 32.8777 19.7776 33.661 21.6292Z" fill="white"/>
    <path d="M21.8043 33.3549H19.0204L18.2137 30.8253H14.1802L13.3814 33.3549H10.6133L14.7417 21.9839H17.7708L21.8043 33.3549ZM17.6284 28.8588L16.4105 25.0368C16.3208 24.7513 16.2576 24.4103 16.2207 24.0139H16.1574C16.131 24.3469 16.0651 24.6773 15.9597 25.005L14.7259 28.8588H17.6284Z" fill="#198754"/>
    <path d="M25.7746 33.3549H23.22V21.9839H25.7746V33.3549Z" fill="#198754"/>
</svg>
