<?xml version="1.0" encoding="iso-8859-1"?>
<!-- Uploaded to: SVG Repo, www.svgrepo.com, Generator: SVG Repo Mixer Tools -->
<svg version="1.1" id="Layer_1" xmlns="http://www.w3.org/2000/svg" xmlns:xlink="http://www.w3.org/1999/xlink" 
	 viewBox="0 0 512 512" xml:space="preserve">
<circle style="fill:#88C5CC;" cx="256" cy="256" r="256"/>
<path style="fill:#1E2C33;" d="M44,112.476v256.796C44,375.196,48.804,380,54.732,380h122.54c5.92,0,10.732-4.8,10.732-10.728
	V46.724c0-5.924-4.804-10.728-10.732-10.728h-52.168C92.792,55.268,65.068,81.42,44,112.476z"/>
<path style="fill:#F5F5F5;" d="M52,101.38V368h128V44h-67.524C89.32,59.708,68.892,79.128,52,101.38z"/>
<g>
	<path style="fill:#1E2C33;" d="M74.008,76H168V56H96.288C88.484,62.244,81.032,68.904,74.008,76z"/>
	<rect x="68" y="112" style="fill:#1E2C33;" width="96" height="12"/>
	<rect x="68" y="140" style="fill:#1E2C33;" width="96" height="8"/>
	<rect x="68" y="164" style="fill:#1E2C33;" width="96" height="8"/>
	<rect x="68" y="188" style="fill:#1E2C33;" width="96" height="8"/>
	<rect x="68" y="212" style="fill:#1E2C33;" width="96" height="8"/>
	<rect x="68" y="240" style="fill:#1E2C33;" width="96" height="8"/>
	<rect x="68" y="100" style="fill:#1E2C33;" width="96" height="12"/>
	<circle style="fill:#1E2C33;" cx="116" cy="292" r="8"/>
</g>
<path style="fill:#F5F5F5;" d="M156,72h-4c-2.212,0-4-1.788-4-4s1.788-4,4-4h4c2.212,0,4,1.788,4,4S158.212,72,156,72z"/>
<path style="fill:#CC803D;" d="M32.036,380c18.448,33.252,44.088,61.928,74.816,84h298.296c30.728-22.072,56.368-50.752,74.816-84
	H32.036z"/>
<g>
	<path style="fill:#99602E;" d="M102.956,430.856c7.988-1.656,13.264-7.516,19.86-11.904c8.776-5.844,18.956-5.688,26.724-13.576
		c6.504-6.596,7.78-16.224,6.264-25.384h-7.42c1.948,10.732-1.896,21.068-13.968,26.084c-5.084,2.112-10.264,3.516-15.232,5.96
		c-6.652,3.276-10.468,9.504-18.14,11.096C96.532,424.08,98.228,431.84,102.956,430.856z"/>
	<path style="fill:#99602E;" d="M109.404,393.676c-5.684-1.324-9.788-8.44-13.324-13.676h-7.996
		c-0.06,0.968,0.184,1.968,0.872,2.828c6.656,8.324,13.416,21.696,26.204,18.584c8.812-2.14,14.736-12.396,14.588-21.416h-6.916
		C123.484,386.668,115.832,395.168,109.404,393.676z"/>
	<path style="fill:#99602E;" d="M175.764,430.512c7.072-9.008,13.064-18.028,16.704-28.948c1.576-4.712-5.312-7.008-6.936-2.124
		c-6.276,18.82-22.492,31.304-30.384,49.228c-2.18,4.952-2.836,10.132-2.628,15.34h8.476
		C161.392,452.356,166.42,442.428,175.764,430.512z"/>
	<path style="fill:#99602E;" d="M239.22,437.188c-5.408-17.452-2.7-37.264-0.5-55.124c0.092-0.76-0.048-1.432-0.272-2.064h-6.672
		c-2.384,19.28-5.36,40.384,0.508,59.312C233.804,444.244,240.688,441.92,239.22,437.188z"/>
	<path style="fill:#99602E;" d="M111.788,464c-2.308-8.84-5.632-17.196-12.748-23.828c-3.736-3.484-8.508,2.468-5.088,5.656
		c4.836,4.512,7.72,10,9.724,15.916c1.044,0.772,2.12,1.5,3.172,2.256L111.788,464L111.788,464z"/>
	<path style="fill:#99602E;" d="M71.124,380c-2.104,12.908,4.124,24.38,11.828,34.828c3.032,4.108,7.82-1.96,5.088-5.656
		C81.6,400.428,76.232,390.92,78.568,380H71.124z"/>
	<path style="fill:#99602E;" d="M250.352,421.252c0.264-5.792-0.712-12.416-2.992-17.764c-0.796-1.868-3.28-2.508-4.924-1.428
		c-1.876,1.22-2.104,3.568-1.292,5.468c1.72,4.032,2.212,9.392,2.008,13.736C242.916,426.352,250.116,426.312,250.352,421.252z"/>
	<path style="fill:#99602E;" d="M59.94,380h-8.324c-3.472,7.964-5.132,15.408-5.072,23.108c3.168,4.5,6.46,8.9,9.908,13.172
		C53.404,405.468,53.66,393.72,59.94,380z"/>
	<path style="fill:#99602E;" d="M210.6,386c-0.46-5.012-7.668-5.084-7.204,0c2.48,27.056-14.884,39.92-22.616,63.312
		c-1.288,3.888-1.852,9.38-1.28,14.688h6.044c-1.348-12.228,12.724-31.28,16.932-38.092C210.12,413.54,211.908,400.252,210.6,386z"
		/>
	<path style="fill:#99602E;" d="M237.212,464c-5.188-12.572-10.976-25.5-12.336-38.852c-0.252-2.532-0.416-5.124-0.548-7.744
		c0.1-0.804,0.216-1.592,0.272-2.412c0.06-0.86-0.148-1.516-0.448-2.084c-0.276-10.916,0.24-22.244,0.404-32.916h-7.18
		c-0.136,11.56-0.36,23.464,0,35.196c-1.376,18.284-15.096,33.424-23.852,48.804h8.568c5.62-9.376,12.204-18.588,16.824-28.528
		c1.644,9.692,6.04,19.252,10.188,28.528L237.212,464L237.212,464z"/>
	<path style="fill:#99602E;" d="M165.328,411.908c11.24-7.328,15.32-19.344,16.728-31.908h-7.568
		c-4.832,23.72-27.872,32.492-42.94,50.652c-9.012,10.86-5.4,21.844-1.856,33.348h7.324c-2.752-7.988-5.952-16.364-2.584-24.252
		C139.58,427.692,154.988,418.648,165.328,411.908z"/>
	<path style="fill:#99602E;" d="M215.64,458.764c0.876,1.728,1.328,3.468,1.532,5.236h7.164c-0.236-3.132-0.916-6.196-2.476-9.264
		C219.504,450.092,213.48,454.512,215.64,458.764z"/>
	<path style="fill:#99602E;" d="M304.108,431.764c3.872-9.928,16.508-15.732,24.916-21.416c6.42-4.34,12.332-9,17.788-14.496
		c4.612-4.652,7.652-10.06,9.68-15.856H347.8c-4.624,9.236-12.232,16.384-22.416,23.444c-6.756,4.688-15.224,9.048-21.292,15.18
		c-0.68-13.236-2-25.416-7.744-38.144c-0.092-0.208-0.236-0.308-0.336-0.48h-5.244c-0.944,1.172-1.4,2.848-0.64,4.52
		c6.54,14.496,6.576,29.536,7.252,45.232C297.548,433.116,302.54,435.788,304.108,431.764z"/>
	<path style="fill:#99602E;" d="M314.416,445.848c4.756-11.676,16.9-18.94,26.608-26.224c13.74-10.284,25.9-22.744,29.5-39.624
		h-7.272c-6.844,29.264-43.532,35.616-55.056,61.812c-1.656,3.764-6.648,14.356-6.996,22.188h7.168
		C309.32,460.16,313.688,447.632,314.416,445.848z"/>
	<path style="fill:#99602E;" d="M315.86,398.764c1.688-3.664,4.556-6.58,6.252-10.252c1.236-2.676,1.68-5.616,2.22-8.52h-7.336
		c-0.38,1.948-0.828,3.888-1.66,5.696c-1.488,3.24-4.184,5.768-5.692,9.036C307.656,399.044,313.684,403.488,315.86,398.764z"/>
	<path style="fill:#99602E;" d="M353.32,432.744c7.312-8.22,17.704-15.764,22.54-25.724c2.084-4.284-3.944-8.716-6.22-4.04
		c-3.508,7.228-10.616,12.164-15.984,17.964c-5.344,5.78-10.476,11.732-15.92,17.416c-7.432,7.764-12.448,15.584-14.584,25.632
		h7.344C333.92,451.148,344.592,442.536,353.32,432.744z"/>
	<path style="fill:#99602E;" d="M476.164,386.608c1.3-2.18,2.572-4.384,3.8-6.608h-5.252
		C475.176,382.196,475.668,384.408,476.164,386.608z"/>
	<path style="fill:#99602E;" d="M413.82,437.156c5-5.96,13.072-9.752,19.752-13.452c7.368-4.084,17.232-6.624,25-11.256
		c3.548-4.584,6.976-9.268,10.216-14.092c-1.232-2.436-4.568-3.616-6.14-0.368c-4.228,8.72-17.248,10.764-25.432,14.856
		c-7.724,3.852-15.352,8.24-22.368,13.252c-14.896,10.656-12.896,22.68-12.312,37.912h2.62c1.388-0.996,2.796-1.948,4.16-2.968
		C408.504,452.592,407.692,444.464,413.82,437.156z"/>
	<path style="fill:#99602E;" d="M276.168,464h7.516c4.596-15.648,9.74-25.736,6.38-43.22c-1.812-9.456-4.836-19.016-7.5-28.268
		c-1.28-4.448-3.544-8.44-5.596-12.512h-8.648c3.46,10.428,8.908,20.556,11.716,31.316c3.152,12.06,6.92,23.204,2.116,35.712
		C279.964,452.72,277.86,458.16,276.168,464z"/>
	<path style="fill:#99602E;" d="M271.608,439.02c4.824-7.464,3.256-18.112,1.608-26.332c-1.024-5.092-7.912-2.692-6.936,2.124
		c1.244,6.2,2.756,14.532-0.892,20.168C262.78,439.016,268.804,443.352,271.608,439.02z"/>
	<path style="fill:#99602E;" d="M410.284,413.5c-0.084-10.672,0.756-21.316,1.068-32c0.016-0.572-0.084-1.064-0.236-1.5h-6.648
		c-0.172,0.436-0.304,0.928-0.32,1.5c-0.392,13.764-1.728,27.472-0.752,41.252c0.2,2.772,3.888,5.968,6.148,2.828
		c10.272-14.208,27.288-14.052,41.14-22.556c8.828-5.416,11.772-13.804,13.104-23.024h-7.156c-0.716,4.648-2.08,8.9-5.596,12.892
		c-4.664,5.268-12.212,7.532-18.732,9.272C424.236,404.32,416.484,407.972,410.284,413.5z"/>
	<path style="fill:#99602E;" d="M424.86,395.02c2.54-4.384,4.508-9.004,5.608-13.956c0.084-0.38,0.048-0.716,0.04-1.064h-7.26
		c-0.996,3.908-2.572,7.468-4.6,10.98C416.236,395.132,422.256,399.508,424.86,395.02z"/>
	<path style="fill:#99602E;" d="M389.964,464c9.196-26.608,9.916-57.084,2.348-84h-8.828c-0.084,0.376-0.128,0.78-0.084,1.252
		c1.752,18.648-1.164,30.86-10.624,46.936c-6.712,11.4-16.604,23.692-26.492,33.4c-1.244-0.248-2.556,0.228-3.392,1.9l-0.252,0.52
		h11.868c10.412-10.896,19.78-23.768,27.204-36.388c4.176-7.096,6.668-13.384,8.084-19.76c1.388,19.036-1.056,38.64-7.432,56.148
		L389.964,464L389.964,464z"/>
	<path style="fill:#99602E;" d="M257.524,380h-7.204c1.636,23.744,5.7,47.208,0.444,70.564c-0.22-0.44-0.42-0.88-0.656-1.328
		c-2.404-4.608-8.42-0.208-6.22,4.04c1.82,3.044,3.116,6.304,3.892,9.788c0.088,0.368,0.244,0.648,0.392,0.936h6.06
		c0.184-0.288,0.364-0.584,0.488-0.936C264.548,435.376,259.448,408.128,257.524,380z"/>
</g>
<path style="fill:#263740;" d="M62.928,424C109.86,477.892,178.924,512,256,512c77.08,0,146.136-34.108,193.072-88H62.928z"/>
<path style="fill:#1E2C33;" d="M512,256c0-56.92-18.6-109.488-50.028-152H224c-4.78,0-8,3.36-8,8.364V288h293.936
	C511.252,277.508,512,266.844,512,256z"/>
<path style="fill:#F5F5F5;" d="M509.936,288H216v32c0,4.78,3.22,8,8,8h277.664C505.448,315.064,508.228,301.7,509.936,288z"/>
<path style="fill:#586874;" d="M232,272h279.452c0.328-5.296,0.548-10.62,0.548-16c0-48.292-13.392-93.452-36.636-132H232V272z"/>
<rect x="344" y="328" style="fill:#E6E6E6;" width="88" height="36"/>
<path style="fill:#F5F5F5;" d="M460,372c0-4.4-3.6-8-8-8H324c-4.4,0-8,3.6-8,8l0,0c0,4.4,3.6,8,8,8h128C456.4,380,460,376.4,460,372
	L460,372z"/>
<circle style="fill:#1E2C33;" cx="388" cy="308" r="8"/>
</svg>